<svg xmlns="http://www.w3.org/2000/svg" viewBox="0 0 315.53 351.09"><defs><style>.cls-1{fill:#ea4335;}</style></defs><g id="Layer_2" data-name="Layer 2"><g id="Layer_1-2" data-name="Layer 1"><path class="cls-1" d="M228.89,175.87q0,27.15-19.72,44.94t-51.4,17.78q-31.7,0-51.41-17.78T86.64,175.87q0-27.8,19.72-45.58t51.41-17.78q31.66,0,51.4,17.78T228.89,175.87Z"/><path class="cls-1" d="M157.77,351.09q-34.92,0-63.69-12.61A140.53,140.53,0,0,1,44.29,302Q23.28,278,11.64,245.7T0,174.58q0-38.15,11.64-70.48T44.29,48.49A144.15,144.15,0,0,1,94.08,12.61Q122.84,0,157.77,0t63.68,12.61a144.33,144.33,0,0,1,49.79,35.88q21,23.28,32.65,55.61t11.64,70.48q0,38.79-11.64,71.12T271.24,302a140.7,140.7,0,0,1-49.79,36.53Q192.68,351.1,157.77,351.09Zm0-25.21q36.85,0,65.62-18.75t45.26-52.7q16.5-33.94,16.49-79.85,0-45.26-16.49-78.56T223.39,44q-28.77-18.75-65.62-18.75T92.14,44Q63.36,62.72,46.88,96T30.39,174.58q0,45.91,16.49,79.85t45.26,52.7Q120.9,325.88,157.77,325.88Z"/></g></g></svg>